<?xml version="1.0" encoding="UTF-8"?>
<!DOCTYPE svg PUBLIC "-//W3C//DTD SVG 1.1//EN" "http://www.w3.org/Graphics/SVG/1.1/DTD/svg11.dtd">
<svg xmlns="http://www.w3.org/2000/svg" version="1.1" width="220px" height="220px" style="shape-rendering:geometricPrecision; text-rendering:geometricPrecision; image-rendering:optimizeQuality; fill-rule:evenodd; clip-rule:evenodd" xmlns:xlink="http://www.w3.org/1999/xlink">
<g><path style="opacity:1" fill="#07aeef" d="M 147.5,15.5 C 161.873,21.6856 174.54,30.3523 185.5,41.5C 189.478,46.9943 193.311,52.661 197,58.5C 198.411,60.6504 199.245,62.9837 199.5,65.5C 197.784,65.6287 196.117,65.962 194.5,66.5C 192.973,66.427 191.973,67.0937 191.5,68.5C 180.635,74.7743 170.635,82.2743 161.5,91C 151.294,101.703 141.294,112.537 131.5,123.5C 131.5,124.167 131.167,124.5 130.5,124.5C 127.851,126.14 125.184,127.807 122.5,129.5C 120.208,129.756 118.041,129.423 116,128.5C 115.429,124.833 114.263,121.5 112.5,118.5C 111.566,117.432 111.232,116.099 111.5,114.5C 111.912,112.027 110.912,110.694 108.5,110.5C 107.167,110.5 105.833,110.5 104.5,110.5C 98.8401,112.448 95.5068,116.448 94.5,122.5C 92.1088,126.078 89.4421,129.578 86.5,133C 84.1902,133.497 81.8568,133.663 79.5,133.5C 78.4065,130.739 76.4065,129.073 73.5,128.5C 73.573,126.973 72.9063,125.973 71.5,125.5C 71.1298,122.733 69.7964,120.733 67.5,119.5C 67.7409,116.966 66.7409,115.3 64.5,114.5C 63.6618,114.158 63.3284,113.492 63.5,112.5C 63.1298,109.733 61.7964,107.733 59.5,106.5C 59.4456,104.368 58.4456,103.035 56.5,102.5C 56.573,100.973 55.9063,99.9731 54.5,99.5C 53.8333,99.5 53.5,99.1667 53.5,98.5C 51.9775,94.436 49.3109,91.436 45.5,89.5C 44.4154,87.4131 42.7488,86.0798 40.5,85.5C 40.0269,84.0937 39.0269,83.427 37.5,83.5C 36.4863,82.3263 35.153,81.6596 33.5,81.5C 32.209,81.7373 31.209,81.404 30.5,80.5C 29.653,79.0337 28.3197,78.2004 26.5,78C 22.8484,77.5014 19.1817,77.3347 15.5,77.5C 15.9926,75.1944 16.3259,72.861 16.5,70.5C 17.9313,69.2196 18.5979,67.5529 18.5,65.5C 18.6596,63.847 19.3263,62.5137 20.5,61.5C 22.588,59.6644 23.9213,57.3311 24.5,54.5C 26.9,52.7036 28.5667,50.3702 29.5,47.5C 44.3184,29.9254 62.6517,17.5921 84.5,10.5C 106.042,6.59257 127.042,8.25924 147.5,15.5 Z"/></g>
<g><path style="opacity:0.125" fill="#d0e9f3" d="M 146.5,13.5 C 146.833,14.1667 147.167,14.8333 147.5,15.5C 127.042,8.25924 106.042,6.59257 84.5,10.5C 105.373,4.57674 126.04,5.57674 146.5,13.5 Z"/></g>
<g><path style="opacity:0.059" fill="#e0eff4" d="M 146.5,13.5 C 162.261,19.1933 175.261,28.5267 185.5,41.5C 174.54,30.3523 161.873,21.6856 147.5,15.5C 147.167,14.8333 146.833,14.1667 146.5,13.5 Z"/></g>
<g><path style="opacity:0.102" fill="#d6ebf3" d="M 84.5,10.5 C 62.6517,17.5921 44.3184,29.9254 29.5,47.5C 39.6263,32.8886 52.9596,22.0552 69.5,15C 74.3239,12.7797 79.3239,11.2797 84.5,10.5 Z"/></g>
<g><path style="opacity:0.255" fill="#d0e9f2" d="M 29.5,47.5 C 28.5667,50.3702 26.9,52.7036 24.5,54.5C 25.4333,51.6298 27.1,49.2964 29.5,47.5 Z"/></g>
<g><path style="opacity:0.067" fill="#e6f1f5" d="M 185.5,41.5 C 191.536,47.2142 196.369,53.8809 200,61.5C 200.765,63.0657 200.598,64.3991 199.5,65.5C 199.245,62.9837 198.411,60.6504 197,58.5C 193.311,52.661 189.478,46.9943 185.5,41.5 Z"/></g>
<g><path style="opacity:0.094" fill="#def0f6" d="M 24.5,54.5 C 23.9213,57.3311 22.588,59.6644 20.5,61.5C 21.0787,58.6689 22.412,56.3356 24.5,54.5 Z"/></g>
<g><path style="opacity:0.114" fill="#e0eff4" d="M 199.5,65.5 C 197.819,67.0075 195.819,68.0075 193.5,68.5C 193.833,67.8333 194.167,67.1667 194.5,66.5C 196.117,65.962 197.784,65.6287 199.5,65.5 Z"/></g>
<g><path style="opacity:0.396" fill="#75cfef" d="M 194.5,66.5 C 194.167,67.1667 193.833,67.8333 193.5,68.5C 192.833,68.5 192.167,68.5 191.5,68.5C 191.973,67.0937 192.973,66.427 194.5,66.5 Z"/></g>
<g><path style="opacity:0.051" fill="#e6f4f8" d="M 18.5,65.5 C 18.5979,67.5529 17.9313,69.2196 16.5,70.5C 16.4021,68.4471 17.0687,66.7804 18.5,65.5 Z"/></g>
<g><path style="opacity:0.031" fill="#e0f1f7" d="M 191.5,68.5 C 192.167,68.5 192.833,68.5 193.5,68.5C 185.736,73.7491 178.069,79.2491 170.5,85C 157.859,97.3089 145.525,109.976 133.5,123C 132.906,123.464 132.239,123.631 131.5,123.5C 141.294,112.537 151.294,101.703 161.5,91C 170.635,82.2743 180.635,74.7743 191.5,68.5 Z"/></g>
<g><path style="opacity:0.627" fill="#86d4f2" d="M 16.5,70.5 C 16.3259,72.861 15.9926,75.1944 15.5,77.5C 19.1817,77.3347 22.8484,77.5014 26.5,78C 28.3197,78.2004 29.653,79.0337 30.5,80.5C 28.7839,80.3713 27.1172,80.038 25.5,79.5C 22.0381,78.5184 18.3714,78.185 14.5,78.5C 14.5,77.5 14.5,76.5 14.5,75.5C 14.4021,73.4471 15.0687,71.7804 16.5,70.5 Z"/></g>
<g><path style="opacity:0.017" fill="#f7fafc" d="M 14.5,75.5 C 14.5,76.5 14.5,77.5 14.5,78.5C 18.3714,78.185 22.0381,78.5184 25.5,79.5C 21.5,79.5 17.5,79.5 13.5,79.5C 13.2322,77.901 13.5655,76.5676 14.5,75.5 Z"/></g>
<g><path style="opacity:0.082" fill="#e9eef0" d="M 202.5,81.5 C 204.546,80.0347 206.38,80.368 208,82.5C 209.591,87.7143 210.425,93.0476 210.5,98.5C 210.167,98.5 209.833,98.5 209.5,98.5C 209.599,95.7628 209.265,93.0961 208.5,90.5C 208.59,87.8478 207.924,85.5145 206.5,83.5C 206.5,83.1667 206.5,82.8333 206.5,82.5C 205.432,81.5655 204.099,81.2322 202.5,81.5 Z"/></g>
<g><path style="opacity:0.063" fill="#ddf1f6" d="M 33.5,81.5 C 35.153,81.6596 36.4863,82.3263 37.5,83.5C 35.6203,83.7709 34.287,83.1042 33.5,81.5 Z"/></g>
<g><path style="opacity:0.118" fill="#cfeaf2" d="M 202.5,81.5 C 204.099,81.2322 205.432,81.5655 206.5,82.5C 204.05,82.298 201.717,82.6314 199.5,83.5C 198.833,83.5 198.167,83.5 197.5,83.5C 198.78,82.0687 200.447,81.4021 202.5,81.5 Z"/></g>
<g><path style="opacity:0.569" fill="#abe1f3" d="M 197.5,83.5 C 198.167,83.5 198.833,83.5 199.5,83.5C 197.898,85.0739 195.898,85.7406 193.5,85.5C 194.514,84.3263 195.847,83.6596 197.5,83.5 Z"/></g>
<g><path style="opacity:0.251" fill="#c5e5ef" d="M 37.5,83.5 C 39.0269,83.427 40.0269,84.0937 40.5,85.5C 38.9731,85.573 37.9731,84.9063 37.5,83.5 Z"/></g>
<g><path style="opacity:1" fill="#0bafef" d="M 206.5,82.5 C 206.5,82.8333 206.5,83.1667 206.5,83.5C 206.41,86.1522 207.076,88.4855 208.5,90.5C 209.265,93.0961 209.599,95.7628 209.5,98.5C 211.473,141.227 194.473,173.894 158.5,196.5C 155.515,197.326 152.849,198.659 150.5,200.5C 142.498,203.163 134.498,205.497 126.5,207.5C 117.851,208.203 109.185,208.536 100.5,208.5C 97.1194,208.54 93.7861,208.207 90.5,207.5C 87.237,205.432 83.5704,204.432 79.5,204.5C 78.209,204.737 77.209,204.404 76.5,203.5C 75.3646,201.787 73.698,201.12 71.5,201.5C 70.3646,199.787 68.698,199.12 66.5,199.5C 64.847,199.34 63.5137,198.674 62.5,197.5C 62.0269,196.094 61.0269,195.427 59.5,195.5C 59.0269,194.094 58.0269,193.427 56.5,193.5C 55.5084,193.672 54.8417,193.338 54.5,192.5C 53.7377,190.738 52.4044,189.738 50.5,189.5C 49.4154,187.413 47.7488,186.08 45.5,185.5C 43.1002,182.097 40.1002,179.43 36.5,177.5C 35.5806,174.911 33.914,172.911 31.5,171.5C 30.8333,171.5 30.5,171.167 30.5,170.5C 30.4456,168.368 29.4456,167.035 27.5,166.5C 27.1298,163.733 25.7964,161.733 23.5,160.5C 21.9925,158.819 20.9925,156.819 20.5,154.5C 20.3404,152.847 19.6737,151.514 18.5,150.5C 15.3255,145.313 13.3255,139.647 12.5,133.5C 12.0371,130.518 11.7038,127.518 11.5,124.5C 11.3709,117.155 11.0375,109.822 10.5,102.5C 10.6107,101.883 10.944,101.383 11.5,101C 19.6527,99.6225 27.3193,100.789 34.5,104.5C 35.0478,106.532 36.3812,107.532 38.5,107.5C 44.8131,111.648 49.9797,116.981 54,123.5C 58.9171,133.253 63.2504,143.253 67,153.5C 70.4194,159.211 74.9194,160.045 80.5,156C 82.1412,154.871 83.1412,153.371 83.5,151.5C 85.9,149.704 87.5667,147.37 88.5,144.5C 90.934,141.562 93.6007,138.729 96.5,136C 98.0657,135.235 99.3991,135.402 100.5,136.5C 100.427,138.027 101.094,139.027 102.5,139.5C 102.5,139.833 102.5,140.167 102.5,140.5C 102.116,144.489 102.783,148.155 104.5,151.5C 106.648,158.109 110.648,159.276 116.5,155C 117.381,154.292 118.047,153.458 118.5,152.5C 121.573,150.431 123.906,147.764 125.5,144.5C 128.5,142.167 131.167,139.5 133.5,136.5C 139.167,131.5 144.5,126.167 149.5,120.5C 163.039,107.281 177.705,95.6146 193.5,85.5C 195.898,85.7406 197.898,85.0739 199.5,83.5C 201.717,82.6314 204.05,82.298 206.5,82.5 Z"/></g>
<g><path style="opacity:0.486" fill="#c5e9f5" d="M 40.5,85.5 C 42.7488,86.0798 44.4154,87.4131 45.5,89.5C 43.2512,88.9202 41.5846,87.5869 40.5,85.5 Z"/></g>
<g><path style="opacity:0.635" fill="#afdeef" d="M 45.5,89.5 C 49.3109,91.436 51.9775,94.436 53.5,98.5C 50.6082,95.729 47.9416,92.729 45.5,89.5 Z"/></g>
<g><path style="opacity:0.596" fill="#7cd8f7" d="M 206.5,83.5 C 207.924,85.5145 208.59,87.8478 208.5,90.5C 207.076,88.4855 206.41,86.1522 206.5,83.5 Z"/></g>
<g><path style="opacity:0.224" fill="#cfeaf2" d="M 193.5,85.5 C 177.705,95.6146 163.039,107.281 149.5,120.5C 149.167,120.5 148.833,120.5 148.5,120.5C 161.492,106.165 176.492,94.4988 193.5,85.5 Z"/></g>
<g><path style="opacity:0.031" fill="#e5eff3" d="M 38.5,105.5 C 37.1667,105.167 35.8333,104.833 34.5,104.5C 27.3193,100.789 19.6527,99.6225 11.5,101C 10.944,101.383 10.6107,101.883 10.5,102.5C 9.51388,106.97 9.18054,111.637 9.5,116.5C 8.35034,111.684 8.18368,106.684 9,101.5C 9.5,101 10,100.5 10.5,100C 19.1382,98.7256 27.4716,99.7256 35.5,103C 36.9423,103.377 37.9423,104.21 38.5,105.5 Z"/></g>
<g><path style="opacity:0.012" fill="#e2f3f9" d="M 54.5,99.5 C 55.9063,99.9731 56.573,100.973 56.5,102.5C 55.0937,102.027 54.427,101.027 54.5,99.5 Z"/></g>
<g><path style="opacity:0.624" fill="#bbe3f2" d="M 56.5,102.5 C 58.4456,103.035 59.4456,104.368 59.5,106.5C 58.0256,105.564 57.0256,104.23 56.5,102.5 Z"/></g>
<g><path style="opacity:0.992" fill="#5cc8f6" d="M 34.5,104.5 C 35.8333,104.833 37.1667,105.167 38.5,105.5C 38.5,106.167 38.5,106.833 38.5,107.5C 36.3812,107.532 35.0478,106.532 34.5,104.5 Z"/></g>
<g><path style="opacity:0.267" fill="#d8f1fa" d="M 108.5,110.5 C 110.912,110.694 111.912,112.027 111.5,114.5C 110.512,113.205 109.512,111.872 108.5,110.5 Z"/></g>
<g><path style="opacity:0.949" fill="#6bc8f2" d="M 10.5,102.5 C 11.0375,109.822 11.3709,117.155 11.5,124.5C 11.1667,124.5 10.8333,124.5 10.5,124.5C 9.52693,122.052 9.1936,119.385 9.5,116.5C 9.18054,111.637 9.51388,106.97 10.5,102.5 Z"/></g>
<g><path style="opacity:0.067" fill="#c8e7f4" d="M 59.5,106.5 C 61.7964,107.733 63.1298,109.733 63.5,112.5C 61.684,110.882 60.3507,108.882 59.5,106.5 Z"/></g>
<g><path style="opacity:0.651" fill="#b6e2f2" d="M 64.5,114.5 C 66.7409,115.3 67.7409,116.966 67.5,119.5C 66.2632,118.035 65.2632,116.368 64.5,114.5 Z"/></g>
<g><path style="opacity:0.063" fill="#e3f1f6" d="M 104.5,110.5 C 100.701,114.091 97.3673,118.091 94.5,122.5C 95.5068,116.448 98.8401,112.448 104.5,110.5 Z"/></g>
<g><path style="opacity:0.659" fill="#b7e2f2" d="M 67.5,119.5 C 69.7964,120.733 71.1298,122.733 71.5,125.5C 69.684,123.882 68.3507,121.882 67.5,119.5 Z"/></g>
<g><path style="opacity:0.008" fill="#e0f2f8" d="M 71.5,125.5 C 72.9063,125.973 73.573,126.973 73.5,128.5C 72.0937,128.027 71.427,127.027 71.5,125.5 Z"/></g>
<g><path style="opacity:0.051" fill="#daeff5" d="M 130.5,124.5 C 128.687,127.647 126.02,129.647 122.5,130.5C 122.5,130.167 122.5,129.833 122.5,129.5C 125.184,127.807 127.851,126.14 130.5,124.5 Z"/></g>
<g><path style="opacity:0.098" fill="#d0e9f2" d="M 10.5,124.5 C 10.8333,124.5 11.1667,124.5 11.5,124.5C 11.7038,127.518 12.0371,130.518 12.5,133.5C 10.8819,130.829 10.2153,127.829 10.5,124.5 Z"/></g>
<g><path style="opacity:0.475" fill="#b3e2f0" d="M 148.5,120.5 C 148.833,120.5 149.167,120.5 149.5,120.5C 144.5,126.167 139.167,131.5 133.5,136.5C 133.5,136.167 133.5,135.833 133.5,135.5C 138.167,130.167 143.167,125.167 148.5,120.5 Z"/></g>
<g><path style="opacity:0.055" fill="#e6f0f3" d="M 38.5,105.5 C 45.0905,109.926 50.5905,115.593 55,122.5C 60.2166,132.933 64.8833,143.599 69,154.5C 70.1171,156.124 71.6171,157.124 73.5,157.5C 77.4869,156.51 80.8203,154.51 83.5,151.5C 83.1412,153.371 82.1412,154.871 80.5,156C 74.9194,160.045 70.4194,159.211 67,153.5C 63.2504,143.253 58.9171,133.253 54,123.5C 49.9797,116.981 44.8131,111.648 38.5,107.5C 38.5,106.833 38.5,106.167 38.5,105.5 Z"/></g>
<g><path style="opacity:0.882" fill="#70cbf2" d="M 112.5,118.5 C 114.263,121.5 115.429,124.833 116,128.5C 118.041,129.423 120.208,129.756 122.5,129.5C 122.5,129.833 122.5,130.167 122.5,130.5C 119.721,130.721 117.054,130.388 114.5,129.5C 113.778,129.082 113.278,128.416 113,127.5C 112.502,124.518 112.335,121.518 112.5,118.5 Z"/></g>
<g><path style="opacity:0.553" fill="#a2daf0" d="M 73.5,128.5 C 76.4065,129.073 78.4065,130.739 79.5,133.5C 76.9108,132.581 74.9108,130.914 73.5,128.5 Z"/></g>
<g><path style="opacity:0.431" fill="#c1dfe9" d="M 114.5,129.5 C 117.054,130.388 119.721,130.721 122.5,130.5C 121.378,131.156 120.045,131.489 118.5,131.5C 116.667,131.415 115.334,130.748 114.5,129.5 Z"/></g>
<g><path style="opacity:0.047" fill="#d6ecf4" d="M 94.5,122.5 C 93.3265,129.002 89.6599,133.336 83.5,135.5C 81.8295,135.332 80.4961,134.665 79.5,133.5C 81.8568,133.663 84.1902,133.497 86.5,133C 89.4421,129.578 92.1088,126.078 94.5,122.5 Z"/></g>
<g><path style="opacity:0.024" fill="#e5f0f3" d="M 104.5,146.5 C 103.833,144.5 103.167,142.5 102.5,140.5C 102.5,140.167 102.5,139.833 102.5,139.5C 102.573,137.973 101.906,136.973 100.5,136.5C 99.3991,135.402 98.0657,135.235 96.5,136C 93.6007,138.729 90.934,141.562 88.5,144.5C 90.192,139.475 93.5253,136.141 98.5,134.5C 100.374,134.39 101.874,135.056 103,136.5C 104.199,139.726 104.699,143.059 104.5,146.5 Z"/></g>
<g><path style="opacity:0.502" fill="#83dcfb" d="M 100.5,136.5 C 101.906,136.973 102.573,137.973 102.5,139.5C 101.094,139.027 100.427,138.027 100.5,136.5 Z"/></g>
<g><path style="opacity:0.153" fill="#def0f7" d="M 133.5,135.5 C 133.5,135.833 133.5,136.167 133.5,136.5C 131.167,139.5 128.5,142.167 125.5,144.5C 127.43,140.9 130.097,137.9 133.5,135.5 Z"/></g>
<g><path style="opacity:0.231" fill="#d1ebf3" d="M 88.5,144.5 C 87.5667,147.37 85.9,149.704 83.5,151.5C 84.4333,148.63 86.1,146.296 88.5,144.5 Z"/></g>
<g><path style="opacity:0.898" fill="#6cd1f7" d="M 102.5,140.5 C 103.167,142.5 103.833,144.5 104.5,146.5C 104.5,148.167 104.5,149.833 104.5,151.5C 102.783,148.155 102.116,144.489 102.5,140.5 Z"/></g>
<g><path style="opacity:0.365" fill="#c8e6f1" d="M 125.5,144.5 C 123.906,147.764 121.573,150.431 118.5,152.5C 120.094,149.236 122.427,146.569 125.5,144.5 Z"/></g>
<g><path style="opacity:0.075" fill="#daeff6" d="M 18.5,150.5 C 19.6737,151.514 20.3404,152.847 20.5,154.5C 18.8958,153.713 18.2291,152.38 18.5,150.5 Z"/></g>
<g><path style="opacity:0.082" fill="#e2eef3" d="M 104.5,146.5 C 105.224,149.083 106.057,151.749 107,154.5C 108.085,155.293 109.252,155.96 110.5,156.5C 113.22,155.14 115.886,153.807 118.5,152.5C 118.047,153.458 117.381,154.292 116.5,155C 110.648,159.276 106.648,158.109 104.5,151.5C 104.5,149.833 104.5,148.167 104.5,146.5 Z"/></g>
<g><path style="opacity:0.075" fill="#deeff5" d="M 209.5,98.5 C 209.833,98.5 210.167,98.5 210.5,98.5C 213.485,133.385 201.819,162.551 175.5,186C 170.447,190.525 164.781,194.025 158.5,196.5C 194.473,173.894 211.473,141.227 209.5,98.5 Z"/></g>
<g><path style="opacity:0.004" fill="#cfeaf5" d="M 23.5,160.5 C 25.7964,161.733 27.1298,163.733 27.5,166.5C 25.684,164.882 24.3507,162.882 23.5,160.5 Z"/></g>
<g><path style="opacity:0.38" fill="#bde3f2" d="M 27.5,166.5 C 29.4456,167.035 30.4456,168.368 30.5,170.5C 29.0256,169.564 28.0256,168.23 27.5,166.5 Z"/></g>
<g><path style="opacity:0.004" fill="#d8eef8" d="M 31.5,171.5 C 33.914,172.911 35.5806,174.911 36.5,177.5C 34.086,176.089 32.4194,174.089 31.5,171.5 Z"/></g>
<g><path style="opacity:0.478" fill="#c3e7f4" d="M 36.5,177.5 C 40.1002,179.43 43.1002,182.097 45.5,185.5C 41.8998,183.57 38.8998,180.903 36.5,177.5 Z"/></g>
<g><path style="opacity:0.216" fill="#c1e3f1" d="M 45.5,185.5 C 47.7488,186.08 49.4154,187.413 50.5,189.5C 48.2512,188.92 46.5846,187.587 45.5,185.5 Z"/></g>
<g><path style="opacity:0.314" fill="#c7e7f5" d="M 50.5,189.5 C 52.4044,189.738 53.7377,190.738 54.5,192.5C 52.5956,192.262 51.2623,191.262 50.5,189.5 Z"/></g>
<g><path style="opacity:0.251" fill="#c5e4ee" d="M 56.5,193.5 C 58.0269,193.427 59.0269,194.094 59.5,195.5C 57.9731,195.573 56.9731,194.906 56.5,193.5 Z"/></g>
<g><path style="opacity:0.114" fill="#ddeef7" d="M 59.5,195.5 C 61.0269,195.427 62.0269,196.094 62.5,197.5C 60.9731,197.573 59.9731,196.906 59.5,195.5 Z"/></g>
<g><path style="opacity:0.051" fill="#e7f3f8" d="M 158.5,196.5 C 156.421,198.873 153.754,200.206 150.5,200.5C 152.849,198.659 155.515,197.326 158.5,196.5 Z"/></g>
<g><path style="opacity:0.616" fill="#bae6f5" d="M 66.5,199.5 C 68.698,199.12 70.3646,199.787 71.5,201.5C 69.4471,201.598 67.7804,200.931 66.5,199.5 Z"/></g>
<g><path style="opacity:0.627" fill="#b7e2f4" d="M 71.5,201.5 C 73.698,201.12 75.3646,201.787 76.5,203.5C 74.4471,203.598 72.7804,202.931 71.5,201.5 Z"/></g>
<g><path style="opacity:0.004" fill="#dfeff5" d="M 150.5,200.5 C 143.14,204.677 135.14,207.01 126.5,207.5C 134.498,205.497 142.498,203.163 150.5,200.5 Z"/></g>
<g><path style="opacity:0.541" fill="#c4e6f2" d="M 79.5,204.5 C 83.5704,204.432 87.237,205.432 90.5,207.5C 86.5732,207.074 82.9065,206.074 79.5,204.5 Z"/></g>
<g><path style="opacity:0.09" fill="#eaf4f7" d="M 126.5,207.5 C 121.234,208.918 115.734,209.585 110,209.5C 106.648,209.498 103.482,209.165 100.5,208.5C 109.185,208.536 117.851,208.203 126.5,207.5 Z"/></g>
</svg>
